PathFileType	4	(X/Y/Z)	OpenSim_Sub05_CSBaseline_Accel.trc
DataRate	CameraRate	NumFrames	NumMarkers	Units	OrigDataRate	OrigDataStartFrame	OrigNumFrames
100	100	34	8	m	100	2640	10557
Frame#	Time	torso_imu_offset_imu	pelvis_imu_offset_imu	tibia_r_imu_offset_imu	femur_r_imu_offset_imu	tibia_l_imu_offset_imu	femur_l_imu_offset_imu	toes_r_imu_offset_imu	toes_l_imu_offset_imu
				X1	Y1	Z1	X2	Y2	Z2	X3	Y3	Z3	X4	Y4	Z4	X5	Y5	Z5	X6	Y6	Z6	X7	Y7	Z7	X8		Y8	Z8	

2640	26.39000000	9.23526900	2.90870205	5.89929637	9.35105011	-2.90906704	1.90619358	9.68134046	1.17076759	-0.62192502	7.90552368	-3.98354641	4.96852979	11.30689967	-0.42482992	-0.79871472	10.10101331	0.78606591	-0.69308774	17.00821444	1.55628065	-11.82304820	4.65304719	2.59234069	11.46835600
2641	26.40000000	9.35913780	2.93145755	5.94077809	9.06714180	-3.02073846	1.85074630	10.12333844	0.63941220	-0.29444673	7.98109507	-3.56830011	6.39893982	11.36061375	-0.94690686	-0.34763238	10.14750091	1.15767516	-0.87857416	19.30320610	6.79248726	-9.89454862	4.38956664	1.70024601	11.71472406
2642	26.41000000	9.36977078	2.76931931	5.84770182	8.84876050	-3.15375619	1.70963565	10.20856967	1.07548272	1.28578444	7.94279792	-3.45352332	7.99459267	11.29645525	-1.11679935	0.50400427	10.51339031	1.26375880	-0.58185305	20.85175201	6.94901738	-11.73502042	4.33809959	2.56435529	11.91429752
2643	26.42000000	9.38298279	2.39236834	5.76206141	8.93638399	-3.00408988	1.81479248	10.92619482	1.61443303	2.63510364	7.91549642	-3.14466709	8.74753876	11.87571217	-0.91528863	0.61434088	10.93700401	1.19211479	-0.02240121	12.29837469	4.35814079	0.71494598	4.28233982	2.81737950	11.94581176
2644	26.43000000	9.68693563	1.96893970	6.11060123	9.34750691	-2.49349092	2.30203123	11.85557522	2.44155787	3.61601148	7.78016710	-2.00115365	7.36942472	12.41796449	-0.48301339	0.87206998	11.30650699	1.09275391	0.76515255	18.22775225	-3.74077744	19.23441618	3.94213243	2.67248228	12.13386100
2645	26.44000000	10.67118012	1.69254385	6.56186801	10.03047787	-2.22708629	2.79578497	12.70763534	0.64715774	4.43308545	7.89950652	-0.36162086	1.75217774	13.52375068	0.01671839	0.82895852	11.92088341	0.95447742	1.19520872	13.04298226	0.55261695	19.00061599	3.75164705	2.75340911	12.65083816
2646	26.45000000	12.00527624	1.57033091	6.69315221	11.25248629	-1.88971777	2.97533842	14.34491974	-3.51351324	7.78191708	10.31681381	0.92233717	-1.22965197	14.43204940	0.61045584	1.42342674	12.52872168	0.85600491	1.71504595	2.72073031	3.60160799	11.08607760	4.04727601	2.85538453	12.74361726
2647	26.46000000	12.69903725	1.44507411	6.18995291	12.73086021	-1.45537003	3.08585831	13.55246525	-3.92164936	6.61631384	12.45847260	-1.89938899	0.78862367	14.67929854	0.58159753	2.26035087	12.88643170	1.49161829	1.43077495	9.29672128	-2.47884543	10.81516443	4.60293469	2.41994209	12.68727030
2648	26.47000000	12.35064679	1.19610267	5.89230943	13.68358418	-1.16488446	3.18686676	9.81419959	0.93453912	2.93998539	13.85313113	-4.97908383	2.81410673	14.35930634	0.55157548	2.95592569	12.41706584	1.90272788	1.42936171	12.90185748	-1.19156919	10.07600132	4.96241993	2.41085222	12.73284187
2649	26.48000000	11.23296931	0.81262575	5.67980783	13.90497519	-1.23718440	3.36228661	6.51031943	6.78207619	0.42677990	12.23541125	-3.90391637	3.88697469	13.84276899	1.07573118	3.28294984	11.58385084	2.06596007	1.64246881	6.62165006	-0.32106203	6.99857708	5.77555895	2.53795293	12.55662468
2650	26.49000000	10.30093921	0.41078199	5.66701083	13.00467978	-1.56998049	3.44508563	5.51940791	11.48557293	-3.72695810	9.47451365	-2.86099536	3.19274468	13.85488588	2.32362397	3.25467795	10.48690143	2.24328233	2.15587091	7.05193002	-1.34310836	7.78535960	6.52502518	2.24262213	12.71958909
2651	26.50000000	10.08751676	0.11235705	5.68182571	11.33742026	-1.77940929	3.44105548	8.42935175	12.89368426	-3.99402620	8.64736493	-3.48217191	2.80308299	13.38640939	3.74281221	3.56051068	9.56699450	2.52613109	2.51350073	8.06075526	-1.66861293	7.95707189	6.49983858	3.20973169	12.40627552
2652	26.51000000	10.10582758	0.01486255	5.67038472	9.83474550	-1.48756949	3.60233801	11.20089248	9.78141256	-0.58500983	9.41844956	-2.37959898	3.29978283	12.08482603	4.30471692	2.97911632	9.01993559	1.28714718	3.52641034	6.47899480	-2.16550182	8.13810225	7.64912841	3.55351944	13.06398493
2653	26.52000000	9.82879998	0.01601065	5.52104875	8.90299639	-0.80519711	3.75214487	10.26700707	5.48230253	0.43673703	10.06350980	1.46117495	3.21356039	11.44976956	3.60882697	1.99492373	8.41552148	0.50576861	3.33709304	5.60105133	-2.42568710	8.61284712	8.05572676	4.86662117	13.21267763
2654	26.53000000	9.41225851	-0.16534820	5.36631278	8.47107736	-0.08049364	3.93836865	9.23802995	3.20471846	0.51427387	9.20238978	4.60580739	2.52328946	10.98495627	1.72462286	0.91874598	9.33520873	0.17867494	2.80595728	5.83022940	-2.33123854	8.49981064	10.53897212	3.92907095	13.63806685
2655	26.54000000	9.19908885	-0.47883115	5.22904527	8.45376324	0.44075101	3.98909237	9.42764712	2.09635882	1.41979075	8.59139145	4.37016292	2.49997119	10.63606737	-1.28404275	-0.66517725	9.75150676	-0.10915392	2.39459803	6.04732374	-1.68453450	8.62489192	11.47280295	2.52556646	11.92029149
2656	26.55000000	9.16789358	-0.76453936	5.13189829	8.70251725	0.79582042	3.88621929	10.29395607	1.47578646	1.27472111	9.84242043	1.80212224	2.68172415	8.85309417	-4.74494647	-0.86479407	9.81153039	-0.43041008	1.93890184	5.84327830	-0.89709482	8.71710297	13.16499200	4.16450304	12.57364743
2657	26.56000000	9.16656863	-0.93354697	5.07440707	8.97439124	1.00780393	3.93198612	10.95234149	1.73043604	1.39966612	11.06090594	-0.79413521	2.12820734	9.07225330	-9.26350963	-1.05890794	9.84766307	-0.71935910	1.63890681	5.73032006	-0.52895682	8.65475433	12.35770725	7.53434025	13.17617423
2658	26.57000000	9.05558474	-0.98562863	4.93645085	9.14924871	1.08325298	3.75669687	10.45181968	2.23060493	1.46329641	11.05840810	-2.28207087	1.13671154	9.29466104	-11.45545893	-2.54499389	10.59461458	-0.92710304	2.02369920	5.82784012	-0.51702625	8.68756092	8.41219050	4.86354173	16.93171222
2659	26.58000000	9.07874395	-1.03213351	4.84252555	9.30031026	1.06646114	3.58370109	9.68662197	3.30495206	0.72049190	10.81031803	-2.66599275	0.53248008	8.52237642	-8.86518036	-2.29474072	11.53368901	-0.54466472	2.07066703	5.88240940	-1.22370955	8.41985510	1.88247449	4.07079620	17.80235361
2660	26.59000000	9.24203831	-1.13423366	4.98320479	9.58176245	0.87630684	3.43689788	9.67487394	3.89422714	0.01523876	10.68454554	-2.55369443	0.53728966	6.06746565	-5.61829757	-1.46391701	11.88640233	0.15274559	2.26769720	5.65256079	-1.61378052	8.45518657	-1.78179850	6.50041369	17.41109279
2661	26.60000000	9.51724891	-1.25894555	5.13581615	9.96403839	0.66439953	3.32412298	9.77362141	4.23347868	-0.80568065	10.27299965	-2.17496123	0.66423361	3.86609115	-2.92729831	0.57432319	11.87136906	0.35453130	2.83182750	5.66962717	-1.83501816	8.29704737	-0.45219722	8.44819559	18.82294102
2662	26.61000000	9.70183261	-1.11190142	5.30979591	10.25395101	0.45275846	3.30405131	9.88716799	3.99385389	-0.96497789	9.53810383	-1.45904797	0.91380414	3.40180110	-1.62686489	0.52691550	11.06066256	-0.19621638	3.07507796	5.57405963	-2.09252754	8.17395274	-0.03874071	7.20068249	19.01957147
2663	26.62000000	9.62287637	-0.85849481	5.41691922	10.30923225	0.18348163	3.38119588	9.88055007	2.88957336	-0.59464926	9.05973314	-0.63751750	1.29306781	4.04806525	-2.29446176	-0.38508666	10.39838973	-1.09553668	2.90697057	5.88833761	-1.79492046	8.07142708	-4.31943552	4.43672747	16.25646160
2664	26.63000000	9.47434606	-0.69847358	5.56155936	10.19151094	-0.03571820	3.37323464	9.78303420	1.77339985	-0.51717567	9.14090716	-0.32037414	1.62819215	4.67577213	-3.21596212	-0.57529336	10.43182079	-1.75017470	2.56684800	5.88105569	-1.87894924	7.94909602	-6.41001828	2.16122747	13.81774984
2665	26.64000000	9.46972624	-0.62155394	5.58049449	10.01118175	-0.07678106	3.33742647	9.72722042	1.86790335	-0.20027274	9.55026640	-0.45778587	1.74833048	4.78016517	-3.35866521	0.35370934	9.99076583	-1.75884892	2.18086548	5.65661556	-1.76543659	8.18027394	-4.72621565	1.99581198	13.71373722
2666	26.65000000	9.49054561	-0.52558981	5.54346423	9.76610382	-0.09658004	3.28308056	9.70330741	2.65321685	0.29462667	9.78844667	-0.70755070	1.71477814	4.27196240	-3.20022969	0.95527701	9.68478568	-1.09925502	1.63917075	5.60288177	-1.34740705	8.32801883	-3.12464307	2.96716026	14.01693574
2667	26.66000000	9.36052062	-0.45043044	5.55405997	9.43084120	-0.05155520	3.21282308	9.68756057	3.24740904	0.47813522	9.87642386	-0.94992623	1.60713032	4.35573047	-3.25093566	0.48868566	9.52442405	-1.11319710	1.91600773	5.60126918	-1.35810343	8.22676064	-2.00816862	3.14908536	14.03681674
2668	26.67000000	9.19748038	-0.40693413	5.57140466	9.18572292	0.03776801	3.14718372	9.57631445	3.46608975	0.60715187	10.04286608	-1.18136002	1.60852685	5.07415221	-3.35889614	0.00734854	9.19440335	-0.71612422	1.88098322	5.55865807	-1.29584123	8.28738023	-1.20205880	2.63661385	13.69807919
2669	26.68000000	9.08360419	-0.40956576	5.56552993	8.98002007	0.18533429	3.15491414	9.75683604	3.16403137	0.43984265	10.20056185	-1.35259107	1.61878416	5.76876309	-3.46725094	-0.03397096	8.90464544	-0.57133384	2.21923420	5.40783370	-1.18589608	8.36698154	-0.37861140	2.25869410	13.27221337
2670	26.69000000	8.97581666	-0.42727333	5.54605657	8.87028504	0.34196368	3.13926575	10.06296828	2.42852962	0.38746856	10.15803821	-1.32962564	1.57948795	6.25243737	-3.38154434	0.13912704	8.90223326	-0.30631383	2.37152955	5.45533194	-1.36736891	8.37902440	0.61583803	2.41284490	13.19861569
2671	26.70000000	8.77213511	-0.49335366	5.40784905	8.85283899	0.48665299	3.06083874	9.97975343	1.96126011	0.30314014	9.92801053	-1.27177814	1.51879376	6.35936019	-3.19874302	0.18254071	8.93383028	0.15193003	2.31096003	5.63801132	-1.53696445	8.24050488	1.84417616	2.60199476	13.32410750
2672	26.71000000	8.65047674	-0.59484226	5.48116961	8.87084411	0.62403776	3.00729917	9.95364501	1.69967387	0.09343604	9.73232900	-1.25375099	1.50803634	6.52137071	-3.20029585	0.20273232	8.73552915	0.21969715	2.39532570	5.78655043	-1.47615945	8.10433815	2.84724621	2.64351061	13.29182062
2673	26.72000000	8.48248487	-0.69464555	5.36173961	8.85474008	0.64286086	2.97882849	9.87358607	1.55603221	-0.08480942	9.50126130	-1.39097095	1.42959853	6.80678659	-3.31237993	0.28982382	8.52792071	0.28900020	2.37933408	5.81792586	-1.40030390	8.03203770	3.50418537	2.62216044	13.16017178
